<mxfile host="app.diagrams.net" agent="Mozilla/5.0 (Windows NT 10.0; Win64; x64) AppleWebKit/537.36 (KHTML, like Gecko) Chrome/133.0.0.0 Safari/537.36" version="26.2.13">
  <diagram name="Page-1" id="UoapbvysSd5U1X-dZqaJ">
    <mxGraphModel dx="1216" dy="653" grid="1" gridSize="10" guides="1" tooltips="1" connect="1" arrows="1" fold="1" page="1" pageScale="1" pageWidth="850" pageHeight="1100" math="0" shadow="0">
      <root>
        <mxCell id="0" />
        <mxCell id="1" parent="0" />
        <mxCell id="QaG2V4MxwFGOFlUVcH84-4" value="" style="edgeStyle=orthogonalEdgeStyle;rounded=0;orthogonalLoop=1;jettySize=auto;html=1;" parent="1" source="QaG2V4MxwFGOFlUVcH84-1" target="QaG2V4MxwFGOFlUVcH84-3" edge="1">
          <mxGeometry relative="1" as="geometry" />
        </mxCell>
        <mxCell id="QaG2V4MxwFGOFlUVcH84-5" value="" style="edgeStyle=orthogonalEdgeStyle;rounded=0;orthogonalLoop=1;jettySize=auto;html=1;" parent="1" source="QaG2V4MxwFGOFlUVcH84-1" target="QaG2V4MxwFGOFlUVcH84-3" edge="1">
          <mxGeometry relative="1" as="geometry" />
        </mxCell>
        <mxCell id="QaG2V4MxwFGOFlUVcH84-7" value="" style="edgeStyle=orthogonalEdgeStyle;rounded=0;orthogonalLoop=1;jettySize=auto;html=1;" parent="1" source="QaG2V4MxwFGOFlUVcH84-1" target="QaG2V4MxwFGOFlUVcH84-3" edge="1">
          <mxGeometry relative="1" as="geometry" />
        </mxCell>
        <mxCell id="QaG2V4MxwFGOFlUVcH84-9" value="" style="edgeStyle=orthogonalEdgeStyle;rounded=0;orthogonalLoop=1;jettySize=auto;html=1;" parent="1" source="QaG2V4MxwFGOFlUVcH84-1" target="QaG2V4MxwFGOFlUVcH84-3" edge="1">
          <mxGeometry relative="1" as="geometry" />
        </mxCell>
        <mxCell id="QaG2V4MxwFGOFlUVcH84-1" value="START" style="ellipse;whiteSpace=wrap;html=1;" parent="1" vertex="1">
          <mxGeometry x="340" y="20" width="120" height="80" as="geometry" />
        </mxCell>
        <mxCell id="QaG2V4MxwFGOFlUVcH84-8" value="" style="edgeStyle=orthogonalEdgeStyle;rounded=0;orthogonalLoop=1;jettySize=auto;html=1;" parent="1" source="QaG2V4MxwFGOFlUVcH84-2" target="QaG2V4MxwFGOFlUVcH84-6" edge="1">
          <mxGeometry relative="1" as="geometry" />
        </mxCell>
        <mxCell id="QaG2V4MxwFGOFlUVcH84-2" value="READ ARR" style="shape=parallelogram;perimeter=parallelogramPerimeter;whiteSpace=wrap;html=1;fixedSize=1;" parent="1" vertex="1">
          <mxGeometry x="340" y="120" width="120" height="60" as="geometry" />
        </mxCell>
        <mxCell id="QaG2V4MxwFGOFlUVcH84-3" value="GET PIVOT&lt;div&gt;&lt;br&gt;&lt;div&gt;pivot = middle&amp;nbsp;&lt;/div&gt;&lt;/div&gt;" style="rounded=0;whiteSpace=wrap;html=1;" parent="1" vertex="1">
          <mxGeometry x="340" y="200" width="120" height="70" as="geometry" />
        </mxCell>
        <mxCell id="DJR24NLSc45UjhZxEUbC-2" value="" style="edgeStyle=orthogonalEdgeStyle;rounded=0;orthogonalLoop=1;jettySize=auto;html=1;" edge="1" parent="1" source="QaG2V4MxwFGOFlUVcH84-6" target="DJR24NLSc45UjhZxEUbC-1">
          <mxGeometry relative="1" as="geometry" />
        </mxCell>
        <mxCell id="QaG2V4MxwFGOFlUVcH84-6" value="SWAP PIVOT WITH END ITEM" style="rounded=0;whiteSpace=wrap;html=1;" parent="1" vertex="1">
          <mxGeometry x="340" y="290" width="120" height="60" as="geometry" />
        </mxCell>
        <mxCell id="DJR24NLSc45UjhZxEUbC-1" value="PARTITION ARRAY&lt;div&gt;&lt;br&gt;&lt;/div&gt;&lt;div&gt;f = first item, l = last item&lt;/div&gt;" style="rounded=0;whiteSpace=wrap;html=1;" vertex="1" parent="1">
          <mxGeometry x="325" y="370" width="150" height="60" as="geometry" />
        </mxCell>
      </root>
    </mxGraphModel>
  </diagram>
</mxfile>
